<svg width="117" height="108" viewBox="0 0 117 108" fill="none" xmlns="http://www.w3.org/2000/svg">
<path d="M57.9952 85.6948C77.9926 85.6948 94.2048 69.4826 94.2048 49.4138C94.2048 29.345 77.9926 13.1328 57.9952 13.1328C37.9978 13.1328 21.7856 29.345 21.7856 49.4138C21.7856 69.4826 37.9978 85.6948 57.9952 85.6948Z" fill="#EAEEF9"/>
<path d="M31.3558 25.918H82.8491C84.9202 25.918 86.4914 27.4892 86.4914 29.5604V62.199C86.4914 64.2701 84.9202 65.8413 82.8491 65.8413H31.3558C29.2846 65.8413 27.7134 64.2701 27.7134 62.199V29.5604C27.7134 27.4892 29.4274 25.918 31.3558 25.918Z" fill="url(#paint0_linear_2023_38070)"/>
<path d="M87.4926 46.8452V62.9146C87.4926 64.9857 85.85 66.6998 83.7074 66.6998H30.7857C28.7146 66.6998 27.0005 64.9857 27.0005 62.9146V45.4883" stroke="#1676EE" stroke-width="3" stroke-linecap="round" stroke-linejoin="round"/>
<path d="M82.9923 37.8438H66.2802C64.6375 37.8438 63.0663 38.4151 61.8522 39.415L57.4956 42.9859C56.2815 43.9858 54.7103 44.5572 53.0676 44.5572H34.2129C32.2846 44.5572 30.7134 46.1284 30.7134 48.0567C30.7134 48.1995 30.7134 48.4138 30.7848 48.5566L34.2843 66.9828C34.57 68.6969 35.9984 69.9824 37.7839 69.9824H78.1358C79.8498 69.9824 81.3496 68.7683 81.6353 67.0542L86.4918 41.8432C86.8489 39.9149 85.5634 38.2008 83.6351 37.8438C83.3494 37.8437 83.1351 37.8438 82.9923 37.8438Z" fill="white"/>
<g filter="url(#filter0_d_2023_38070)">
<path d="M90.4927 32.9191H68.7813C66.6387 32.9191 64.639 33.6333 62.9963 34.9902L57.2828 39.6325C55.7116 40.918 53.6404 41.7036 51.4978 41.7036H26.9296C24.4299 41.7036 22.4302 43.7748 22.4302 46.2031C22.4302 46.4173 22.4302 46.6316 22.5016 46.8458L27.001 70.9141C27.3581 73.1995 29.2864 74.8422 31.5004 74.8422H84.065C86.3504 74.8422 88.2073 73.271 88.5644 70.9855L94.9207 38.0613C95.3492 35.5616 93.7066 33.3476 91.2069 32.8477C90.9927 32.9191 90.707 32.9191 90.4927 32.9191Z" fill="url(#paint1_linear_2023_38070)"/>
</g>
<path d="M48.496 57.8426C49.7815 57.8426 50.8528 56.7713 50.8528 55.4857C50.8528 54.2002 49.7815 53.1289 48.496 53.1289C47.2105 53.1289 46.1392 54.2002 46.1392 55.4857C46.1392 56.7713 47.2105 57.8426 48.496 57.8426Z" fill="#989FB0"/>
<path d="M66.8515 57.7723C68.137 57.7723 69.2083 56.701 69.2083 55.4154C69.2083 54.1299 68.137 53.0586 66.8515 53.0586C65.5659 53.0586 64.4946 54.1299 64.4946 55.4154C64.4946 56.7724 65.5659 57.7723 66.8515 57.7723Z" fill="#989FB0"/>
<path d="M93.9911 73.1979C93.7054 74.412 93.2769 75.6976 92.777 76.7689C91.42 79.4114 89.2774 81.4825 86.6349 82.8395C83.921 84.1965 80.7071 84.7678 77.4932 84.0536C69.9228 82.4824 65.0663 75.0548 66.6375 67.4844C68.2087 59.9139 75.5649 54.986 83.1354 56.6286C85.8493 57.2 88.2061 58.5569 90.2059 60.4139C93.5626 63.7706 94.991 68.6271 93.9911 73.1979Z" fill="url(#paint2_linear_2023_38070)"/>
<path d="M84.7776 69.1272H81.5638V65.9133C81.5638 65.2706 81.0638 64.6992 80.3496 64.6992C79.7069 64.6992 79.1355 65.1992 79.1355 65.9133V69.1272H75.9217C75.2789 69.1272 74.7075 69.6271 74.7075 70.3413C74.7075 71.0555 75.2075 71.5555 75.9217 71.5555H79.1355V74.7693C79.1355 75.4121 79.6355 75.9835 80.3496 75.9835C80.9924 75.9835 81.5638 75.4835 81.5638 74.7693V71.5555H84.7776C85.4204 71.5555 85.9918 71.0555 85.9918 70.3413C85.9918 69.6271 85.4204 69.1272 84.7776 69.1272Z" fill="white"/>
<path d="M54.7817 40.9174C52.2106 35.918 51.6393 29.9188 53.3533 24.4909C54.996 19.0631 58.924 14.4208 63.7805 11.7783C65.2803 10.9927 66.9944 10.3499 68.7085 10.2785C70.4225 10.2071 72.2794 10.7784 73.4221 12.2068C74.5648 13.4924 74.7791 15.6349 73.8506 17.0633C72.8508 18.4203 70.851 18.9916 69.2084 18.5631C66.5659 18.0632 64.4233 15.992 63.7805 13.4924C63.1378 10.9927 63.9948 8.0645 65.9945 6.42185C67.2801 5.27915 69.0656 4.63637 70.7082 4.13644C78.7072 1.7796 87.4203 1.49392 95.5621 3.27941" stroke="#C9D4E2" stroke-width="2" stroke-miterlimit="10" stroke-dasharray="4 4"/>
<path d="M59.9226 60.3438H55.4946V61.415H59.9226V60.3438Z" fill="#989FB0"/>
<path d="M99.8469 1.42157C99.7755 2.49286 99.704 3.49273 98.9184 3.70699C98.1328 3.92124 97.7757 3.20705 97.2758 2.20718C96.7758 1.27873 97.0615 0.278862 97.9186 0.0646039C98.7042 -0.149654 99.9897 0.136023 99.8469 1.42157Z" fill="#DAE2EB"/>
<path d="M98.9891 6.56298C99.2034 5.27743 99.4177 4.56324 98.7035 4.20614C97.9178 3.84905 97.4179 4.49182 96.5609 5.34885C95.8467 6.13446 96.2752 7.27717 96.9894 7.63427C97.8464 8.06278 98.7749 7.63427 98.9891 6.56298Z" fill="#DAE2EB"/>
<path d="M99.9887 4.20464C99.9172 4.70457 99.5601 5.06167 99.0602 5.13309C98.8459 5.13309 98.6317 5.13309 98.346 5.13309C97.3461 4.99025 96.5605 4.34747 96.632 3.7047C96.7034 3.06193 97.6318 2.70483 98.7745 2.84767C98.9888 2.84767 99.203 2.91909 99.3459 2.99051C99.7744 3.13335 100.06 3.63328 99.9887 4.20464C99.9887 4.13322 99.9887 4.20464 99.9887 4.20464Z" fill="#989FB0"/>
<path d="M20.2856 24.2772C20.2856 23.0631 20.2856 21.849 21.1427 21.4919C22.0711 21.1348 22.5711 21.9918 23.2853 23.206C23.928 24.2772 23.6423 25.4199 22.7139 25.777C21.9283 26.1341 20.2856 25.9199 20.2856 24.2772Z" fill="#DAE2EB"/>
<path d="M20.7848 18.2738C20.6419 19.7736 20.4277 20.6307 21.3561 20.9878C22.2846 21.3449 22.7845 20.5592 23.713 19.4165C24.4272 18.4167 23.9272 17.1311 22.9988 16.774C22.0703 16.4169 20.9276 17.0597 20.7848 18.2738Z" fill="#DAE2EB"/>
<path d="M20.0005 21.1327C20.0005 20.5613 20.429 20.1328 20.9289 20.0614C21.1432 19.99 21.4289 19.99 21.7146 20.0614C22.8573 20.1328 23.8571 20.7756 23.7857 21.4898C23.7143 22.204 22.7858 22.7039 21.5717 22.5611C21.3575 22.5611 21.1432 22.4896 20.9289 22.4182C20.3576 22.3468 20.0005 21.7754 20.0005 21.1327Z" fill="#989FB0"/>
<path d="M24.8579 21.3477C32.3569 21.3477 46.2123 25.7042 46.4265 41.7021" stroke="#C9D4E2" stroke-width="2" stroke-miterlimit="10" stroke-dasharray="4 4"/>
<defs>
<filter id="filter0_d_2023_38070" x="0.430176" y="21.8477" width="116.559" height="85.9941" filterUnits="userSpaceOnUse" color-interpolation-filters="sRGB">
<feFlood flood-opacity="0" result="BackgroundImageFix"/>
<feColorMatrix in="SourceAlpha" type="matrix" values="0 0 0 0 0 0 0 0 0 0 0 0 0 0 0 0 0 0 127 0" result="hardAlpha"/>
<feOffset dy="11"/>
<feGaussianBlur stdDeviation="11"/>
<feColorMatrix type="matrix" values="0 0 0 0 0.397708 0 0 0 0 0.47749 0 0 0 0 0.575 0 0 0 0.27 0"/>
<feBlend mode="normal" in2="BackgroundImageFix" result="effect1_dropShadow_2023_38070"/>
<feBlend mode="normal" in="SourceGraphic" in2="effect1_dropShadow_2023_38070" result="shape"/>
</filter>
<linearGradient id="paint0_linear_2023_38070" x1="57.107" y1="27.3049" x2="57.107" y2="49.7134" gradientUnits="userSpaceOnUse">
<stop stop-color="#B0BACC"/>
<stop offset="1" stop-color="#969EAE"/>
</linearGradient>
<linearGradient id="paint1_linear_2023_38070" x1="58.6858" y1="31.8763" x2="58.6858" y2="75.2949" gradientUnits="userSpaceOnUse">
<stop stop-color="#FDFEFF"/>
<stop offset="0.9964" stop-color="#ECF0F5"/>
</linearGradient>
<linearGradient id="paint2_linear_2023_38070" x1="66.3295" y1="70.3407" x2="94.3095" y2="70.3407" gradientUnits="userSpaceOnUse">
<stop stop-color="#B0BACC"/>
<stop offset="1" stop-color="#969EAE"/>
</linearGradient>
</defs>
</svg>
