<svg width="140" height="119" viewBox="0 0 140 119" fill="none" xmlns="http://www.w3.org/2000/svg">
<path d="M122.85 54.9016C122.85 69.1016 117.05 81.9016 107.75 91.1016C98.6502 100.202 86.0502 105.702 72.1502 105.702C58.3502 105.702 45.7502 100.102 36.5502 91.1016C27.2502 81.9016 21.4502 69.1016 21.4502 54.9016C21.4502 26.8016 44.1502 4.10156 72.1502 4.10156C100.15 4.10156 122.85 26.9016 122.85 54.9016Z" fill="#EAEEF9"/>
<path d="M118.45 21.5984C120.714 21.5984 122.55 19.7628 122.55 17.4984C122.55 15.2341 120.714 13.3984 118.45 13.3984C116.185 13.3984 114.35 15.2341 114.35 17.4984C114.35 19.7628 116.185 21.5984 118.45 21.5984Z" fill="#EAEEF9"/>
<path d="M124.45 5.6C125.997 5.6 127.25 4.3464 127.25 2.8C127.25 1.2536 125.997 0 124.45 0C122.904 0 121.65 1.2536 121.65 2.8C121.65 4.3464 122.904 5.6 124.45 5.6Z" fill="#EAEEF9"/>
<path d="M23.05 21.4984C24.5964 21.4984 25.85 20.2448 25.85 18.6984C25.85 17.152 24.5964 15.8984 23.05 15.8984C21.5036 15.8984 20.25 17.152 20.25 18.6984C20.25 20.2448 21.5036 21.4984 23.05 21.4984Z" fill="#EAEEF9"/>
<path d="M5.95 75.5016C8.82188 75.5016 11.15 73.1734 11.15 70.3016C11.15 67.4297 8.82188 65.1016 5.95 65.1016C3.07812 65.1016 0.75 67.4297 0.75 70.3016C0.75 73.1734 3.07812 75.5016 5.95 75.5016Z" fill="#EAEEF9"/>
<g filter="url(#filter0_d_1654_137192)">
<path d="M117.469 25.7813V81.1861C117.469 83.4921 115.623 85.319 113.36 85.319H29.9051C27.6423 85.319 25.7666 83.4622 25.7666 81.1861V25.7813C25.7666 23.5052 27.6126 21.6484 29.9051 21.6484H113.36C115.623 21.6484 117.469 23.5052 117.469 25.7813Z" fill="url(#paint0_linear_1654_137192)"/>
</g>
<path d="M117.469 25.7813V31.9807H25.7666V25.7813C25.7666 23.5052 27.6126 21.6484 29.9051 21.6484H113.36C115.623 21.6484 117.469 23.5052 117.469 25.7813Z" fill="#D5DDEA"/>
<path d="M31.5424 28.3568C32.3974 28.3568 33.0906 27.6596 33.0906 26.7995C33.0906 25.9394 32.3974 25.2422 31.5424 25.2422C30.6873 25.2422 29.9941 25.9394 29.9941 26.7995C29.9941 27.6596 30.6873 28.3568 31.5424 28.3568Z" fill="#989FB0"/>
<path d="M36.6039 28.3568C37.4589 28.3568 38.1521 27.6596 38.1521 26.7995C38.1521 25.9394 37.4589 25.2422 36.6039 25.2422C35.7488 25.2422 35.0557 25.9394 35.0557 26.7995C35.0557 27.6596 35.7488 28.3568 36.6039 28.3568Z" fill="#989FB0"/>
<path d="M41.6351 28.3568C42.4902 28.3568 43.1834 27.6596 43.1834 26.7995C43.1834 25.9394 42.4902 25.2422 41.6351 25.2422C40.7801 25.2422 40.0869 25.9394 40.0869 26.7995C40.0869 27.6596 40.7801 28.3568 41.6351 28.3568Z" fill="#989FB0"/>
<path d="M44.9102 69.7188H98.3237" stroke="#D5DDEA" stroke-width="2" stroke-miterlimit="10" stroke-linecap="round" stroke-linejoin="round"/>
<path d="M53.3369 75.4375H89.8987" stroke="#D5DDEA" stroke-width="2" stroke-miterlimit="10" stroke-linecap="round" stroke-linejoin="round"/>
<path d="M62.6858 53.6057V56.6904H60.81V59.6553H57.2968V56.6904H49.5557V53.1565L56.7311 43.1237H60.8398V53.6356H62.6858V53.6057ZM57.2968 47.2267L52.8307 53.6057H57.2968V47.2267Z" fill="url(#paint1_linear_1654_137192)"/>
<path d="M71.4987 59.9847C67.7472 59.9847 64.4424 56.6904 64.4424 51.3595C64.4424 46.0287 67.7175 42.7344 71.4987 42.7344C75.2799 42.7344 78.555 46.0287 78.555 51.3595C78.555 56.6904 75.2799 59.9847 71.4987 59.9847ZM71.4987 56.8102C73.2553 56.8102 75.012 55.0432 75.012 51.3895C75.012 47.7358 73.2553 45.9688 71.4987 45.9688C69.7421 45.9688 67.9854 47.7358 67.9854 51.3895C67.9854 55.0432 69.7421 56.8102 71.4987 56.8102Z" fill="url(#paint2_linear_1654_137192)"/>
<path d="M93.7097 53.6057V56.6904H91.834V59.6553H88.3207V56.6904H80.5796V53.1565L87.755 43.1237H91.8638V53.6356H93.7097V53.6057ZM88.2909 47.2267L83.8249 53.6057H88.2909V47.2267Z" fill="url(#paint3_linear_1654_137192)"/>
<path d="M113.414 97.5546L93.4668 77.6236L98.0396 73.0508L117.971 92.9976L113.414 97.5546Z" fill="#858B9B"/>
<path d="M120.348 104.565L105.053 89.2696C103.775 87.9923 103.775 85.9109 105.053 84.6337C106.33 83.3565 108.411 83.3565 109.688 84.6337L124.984 99.9289C126.261 101.206 126.261 103.287 124.984 104.565C123.706 105.842 121.625 105.842 120.348 104.565Z" fill="#858B9B"/>
<path d="M119.26 105.543L99.5812 85.8648C99.124 85.4075 99.124 84.6664 99.5812 84.1933L104.611 79.1633C105.069 78.706 105.81 78.706 106.283 79.1633L125.961 98.842C126.419 99.2993 126.419 100.04 125.961 100.513L120.931 105.543C120.458 106.001 119.717 106.001 119.26 105.543Z" fill="url(#paint4_linear_1654_137192)"/>
<path d="M70.8872 13.3984C50.0101 13.3984 33.0908 30.3177 33.0908 51.1948C33.0908 72.0561 50.0101 88.9912 70.8714 88.9912C91.7485 88.9912 108.668 72.0719 108.668 51.1948C108.668 30.3177 91.7485 13.3984 70.8872 13.3984ZM70.8872 81.9901C54.1256 81.9901 40.5492 68.1929 40.5492 51.179C40.5492 34.1652 54.1256 20.3837 70.8872 20.3837C87.6488 20.3837 101.225 34.1809 101.225 51.1948C101.225 68.2087 87.633 81.9901 70.8872 81.9901Z" fill="url(#paint5_linear_1654_137192)"/>
<defs>
<filter id="filter0_d_1654_137192" x="3.7666" y="10.6484" width="135.702" height="107.672" filterUnits="userSpaceOnUse" color-interpolation-filters="sRGB">
<feFlood flood-opacity="0" result="BackgroundImageFix"/>
<feColorMatrix in="SourceAlpha" type="matrix" values="0 0 0 0 0 0 0 0 0 0 0 0 0 0 0 0 0 0 127 0" result="hardAlpha"/>
<feOffset dy="11"/>
<feGaussianBlur stdDeviation="11"/>
<feColorMatrix type="matrix" values="0 0 0 0 0.397708 0 0 0 0 0.47749 0 0 0 0 0.575 0 0 0 0.27 0"/>
<feBlend mode="normal" in2="BackgroundImageFix" result="effect1_dropShadow_1654_137192"/>
<feBlend mode="normal" in="SourceGraphic" in2="effect1_dropShadow_1654_137192" result="shape"/>
</filter>
<linearGradient id="paint0_linear_1654_137192" x1="71.5878" y1="20.1757" x2="71.5878" y2="86.0054" gradientUnits="userSpaceOnUse">
<stop stop-color="#FDFEFF"/>
<stop offset="0.9964" stop-color="#ECF0F5"/>
</linearGradient>
<linearGradient id="paint1_linear_1654_137192" x1="78.7152" y1="42.7344" x2="82.0143" y2="59.9847" gradientUnits="userSpaceOnUse">
<stop stop-color="#B0BACC"/>
<stop offset="1" stop-color="#969EAE"/>
</linearGradient>
<linearGradient id="paint2_linear_1654_137192" x1="78.7152" y1="42.7344" x2="82.0143" y2="59.9847" gradientUnits="userSpaceOnUse">
<stop stop-color="#B0BACC"/>
<stop offset="1" stop-color="#969EAE"/>
</linearGradient>
<linearGradient id="paint3_linear_1654_137192" x1="78.7152" y1="42.7344" x2="82.0143" y2="59.9847" gradientUnits="userSpaceOnUse">
<stop stop-color="#B0BACC"/>
<stop offset="1" stop-color="#969EAE"/>
</linearGradient>
<linearGradient id="paint4_linear_1654_137192" x1="99.2259" y1="92.3563" x2="126.309" y2="92.3563" gradientUnits="userSpaceOnUse">
<stop stop-color="#B0BACC"/>
<stop offset="1" stop-color="#969EAE"/>
</linearGradient>
<linearGradient id="paint5_linear_1654_137192" x1="33.0562" y1="51.203" x2="108.682" y2="51.203" gradientUnits="userSpaceOnUse">
<stop stop-color="#B0BACC"/>
<stop offset="1" stop-color="#969EAE"/>
</linearGradient>
</defs>
</svg>
